{"asset":{"version":"2.0","generator":"THREE.GLTFExporter"},"scenes":[{"name":"AuxScene","nodes":[0]}],"scene":0,"nodes":[{"mesh":0}],"bufferViews":[{"buffer":0,"byteOffset":0,"byteLength":468,"target":34962,"byteStride":12},{"buffer":0,"byteOffset":468,"byteLength":468,"target":34962,"byteStride":12}],"buffers":[{"byteLength":936,"uri":"data:application/octet-stream;base64,"}],"accessors":[{"bufferView":0,"componentType":5126,"count":39,"max":[7.679657936096191,0.30000001192092896,6.801127910614014],"min":[-6.720343112945557,0.30000001192092896,-6.098873138427734],"type":"VEC3"},{"bufferView":1,"componentType":5126,"count":39,"max":[0,1,0],"min":[0,1,0],"type":"VEC3"}],"materials":[{"pbrMetallicRoughness":{"baseColorFactor":[0.5019607843137255,0.5019607843137255,0.5019607843137255,1],"metallicFactor":0,"roughnessFactor":1}}],"meshes":[{"primitives":[{"mode":4,"attributes":{"POSITION":0,"NORMAL":1},"material":0}]}]}